<?xml version="1.0" encoding="UTF-8"?>
<svg version="1.1" xmlns="http://www.w3.org/2000/svg" width="1024" height="1024">
<path d="M0 0 C4.09730428 3.49769877 4.32201913 6.54077702 4.81469727 11.60229492 C7.71394277 49.11677466 0.88319761 88.25923468 -6.12011719 125.00146484 C-8.49778483 137.63042237 -9.44320767 148.47067108 -2.1875 159.6875 C3.43414377 167.84362822 3.43414377 167.84362822 11 174 C15.2605663 172.57981123 16.69398317 169.41269528 19.0625 165.8125 C20.05105695 164.34305899 21.0406604 162.87432152 22.03125 161.40625 C22.52882812 160.66503906 23.02640625 159.92382812 23.5390625 159.16015625 C33.00081524 145.16991757 43.04523956 131.76928416 54.63085938 119.47070312 C55.96690397 118.03555108 57.27299761 116.57269965 58.578125 115.109375 C65.68673104 107.1494389 73.33213234 99.86792228 81.19482422 92.65673828 C82.72100242 91.25605593 84.23845016 89.84586985 85.75390625 88.43359375 C138.86490596 39.5224754 203.87443694 6.83734961 275.75 0.25 C276.90276428 0.14260498 278.05552856 0.03520996 279.2432251 -0.07543945 C329.25960265 -4.67365385 375.52113641 -0.02460392 422 20 C422.74910645 20.32226562 423.49821289 20.64453125 424.27001953 20.9765625 C454.37799236 34.11167457 480.21846132 55.81378281 500 82 C500.7321875 82.91523438 501.464375 83.83046875 502.21875 84.7734375 C540.49393441 133.11449833 551.97931524 182.0235241 560 242 C569.89782013 242.96121571 579.72503104 243.17156597 589.66127396 243.22979546 C592.42539636 243.24654105 595.18940034 243.26979036 597.95346069 243.29469299 C605.80452278 243.36450959 613.65563563 243.42484981 621.50683594 243.47680664 C715.67505825 244.1167055 715.67505825 244.1167055 735 257 C734.52022829 265.21529402 733.38480256 273.00684715 731.4375 281 C731.17573975 282.07870361 730.91397949 283.15740723 730.64428711 284.26879883 C727.11072021 298.21297921 721.49238089 319.50761911 711 330 C708.1342848 330.09274159 705.41679756 330.04489211 702.5625 329.875 C701.21696045 329.79560181 701.21696045 329.79560181 699.84423828 329.71459961 C679.2638347 328.31274603 659.17327582 324.09542552 639 320 C611.77174084 314.48326262 585.84542549 310.54332538 558 310 C555.525 322.87 555.525 322.87 553 336 C556.3103125 335.938125 556.3103125 335.938125 559.6875 335.875 C627.29057638 335.49767412 701.46277325 356.38485271 751.453125 403.60546875 C753.52265535 405.55120818 755.6186913 407.38682958 757.8125 409.1875 C788.6997175 435.31664752 808.22475117 480.0906379 811.72924805 519.75537109 C815.95233496 582.9814194 778.01783085 644.46100008 738.04003906 690.32763672 C729.21369896 700.35239191 720.04576375 710.0329534 710.625 719.5 C709.98328857 720.14638428 709.34157715 720.79276855 708.68041992 721.45874023 C646.21029023 783.71921155 555.76797588 819.24476791 206.3125 891.25 C205.23049191 891.25044186 205.23049191 891.25044186 204.12662506 891.25089264 C153.474472 891.25421676 102.64170724 887.54025772 53 877 C51.8562793 876.76764648 50.71255859 876.53529297 49.53417969 876.29589844 C-18.35965248 862.45452895 -87.89712881 837.77894972 -139.19140625 789.62109375 C-141.81436811 787.17323922 -144.49001001 784.80247967 -147.1875 782.4375 C-167.2215304 764.34327254 -182.7465913 740.3919385 -194 716 C-194.42901611 715.08976074 -194.42901611 715.08976074 -194.86669922 714.16113281 C-215.95952869 669.1582393 -197.80329127 611.12201023 -182.20068359 566.72558594 C-173.79654818 543.49544167 -160.30890725 524.45001844 -145.45898438 504.97949219 C-136.61410042 493.36426021 -128.3205592 481.56396419 -120.79418945 469.04760742 C-116.32796176 461.62028536 -111.87543422 454.4248546 -106 448 C-105.59023926 447.52248291 -105.18047852 447.04496582 -104.75830078 446.55297852 C-98.65072461 439.88775408 -90.86169472 435.26495887 -83.375 430.3125 C-81.2607475 428.90501053 -79.14804921 427.49524866 -77.03677368 426.08329773 C-75.73099647 425.21096857 -74.42330467 424.34149592 -73.1133728 423.47541809 C-67.41362154 419.68424362 -62.86815007 416.57429451 -59.8125 410.25 C-59.32394531 409.26515625 -58.83539063 408.2803125 -58.33203125 407.265625 C-51.33531724 390.11239065 -53.96920228 369.61372088 -60.89306641 352.8359375 C-63.00378011 348.07667874 -65.42790882 343.52341574 -68 339 C-68.4935498 338.11441406 -68.4935498 338.11441406 -68.99707031 337.2109375 C-76.24066682 324.3270131 -87.41233578 309.01756438 -102 304 C-113.70701863 301.12536023 -125.06222877 300.52980056 -137.0625 300.4375 C-158.14952666 300.22942508 -178.30385936 299.80134836 -195 285 C-206.15277819 273.0339984 -207.60657255 259.33864481 -207.3046875 243.63671875 C-205.89015393 208.91050422 -182.46675923 177.60645058 -160 153 C-157.68877111 150.41326038 -155.37956529 147.82701845 -153.1015625 145.2109375 C-151 143 -151 143 -148.9609375 141.6015625 C-146.85816882 140.14722469 -146.03088621 139.3546507 -145 137 C-145.43429157 133.88485976 -145.43429157 133.88485976 -146.5234375 130.33203125 C-146.91701911 128.885113 -147.306656 127.43711808 -147.69311523 125.98828125 C-147.90628387 125.19301025 -148.11945251 124.39773926 -148.33908081 123.57836914 C-149.56219653 118.8067664 -150.57951765 113.98963555 -151.62109375 109.17578125 C-152.086268 107.05396616 -152.55176739 104.93222233 -153.01757812 102.81054688 C-153.73082727 99.55366225 -154.44100261 96.29623328 -155.14282227 93.03686523 C-159.61164746 71.0728846 -159.61164746 71.0728846 -169.875 51.375 C-170.74948622 50.11252484 -171.62317867 48.84949951 -172.49609375 47.5859375 C-172.92003418 46.98104492 -173.34397461 46.37615234 -173.78076172 45.75292969 C-185 29.6227473 -185 29.6227473 -185 23.0625 C-182.27312888 14.71145718 -177.64757694 10.16642185 -170 6 C-163.80201039 2.96987175 -155.99873461 2.88924039 -149.3984375 4.72265625 C-140.49629599 8.39962774 -136.76823938 14.4689358 -133 23 C-131.83594823 26.35424686 -130.93089276 29.74620886 -130.0625 33.1875 C-129.81435547 34.12803223 -129.56621094 35.06856445 -129.31054688 36.03759766 C-128.00395155 41.0097359 -126.74889698 45.99455674 -125.49609375 50.98046875 C-119.56617988 74.46564072 -111.02762327 95.59889201 -96.99707031 115.55883789 C-94 119.82507573 -94 119.82507573 -94 122 C-79.48 122 -64.96 122 -50 122 C-49.01 118.37 -48.02 114.74 -47 111 C-46.24144756 108.56224954 -45.46369403 106.13032573 -44.66015625 103.70703125 C-44.23388434 102.41246144 -43.80795183 101.11777983 -43.38232422 99.82299805 C-43.16606384 99.16729828 -42.94980347 98.51159851 -42.72698975 97.83602905 C-34.77548677 73.62181448 -30.74608999 55.37223759 -36.19848633 30.07128906 C-40.09689456 11.61967742 -40.09689456 11.61967742 -37.21875 3.90625 C-29.4430115 -7.42411182 -10.39833561 -6.07902697 0 0 Z M-26.3125 10.5625 C-29.16585224 14.68400879 -27.75052396 19.22080563 -27 24 C-25.94971283 28.60124169 -24.68744827 33.13715441 -23.4375 37.6875 C-15.88360157 67.00522416 -25.59199121 91.42244016 -34.68041992 119.37475586 C-35.10627129 120.69040024 -35.10627129 120.69040024 -35.54072571 122.03262329 C-36.08029861 123.6970577 -36.62365938 125.36027026 -37.17131042 127.02206421 C-38.17537477 130.12072375 -39 132.72063033 -39 136 C-46.9102358 136.34919991 -54.81720531 136.61483168 -62.73326683 136.77718258 C-66.4104142 136.85515565 -70.08225623 136.96062024 -73.75634766 137.1315918 C-97.43302862 138.20494113 -97.43302862 138.20494113 -103.27432251 134.59411621 C-106.69357124 131.22928103 -108.58314621 127.42788663 -110.21453857 122.96440125 C-111.53459748 119.66299741 -113.50113129 116.85044407 -115.4375 113.875 C-116.99352735 111.26983765 -118.49750246 108.63635482 -120 106 C-120.43989258 105.23478027 -120.87978516 104.46956055 -121.33300781 103.68115234 C-133.48242838 82.31537034 -139.60243327 60.26117243 -144.35058594 36.26123047 C-145.31563386 31.41494846 -146.3467242 26.58317519 -147.375 21.75 C-147.91824193 19.16699411 -148.45911912 16.5835016 -149 14 C-157.87842985 16.43303126 -166.41405225 19.70836494 -175 23 C-175 26.98183884 -173.63430382 27.94365658 -171.0625 30.9375 C-169.83273438 32.40703125 -169.83273438 32.40703125 -168.578125 33.90625 C-168.15080078 34.41671875 -167.72347656 34.9271875 -167.28320312 35.453125 C-165.24391651 37.91144311 -163.26697841 40.41130342 -161.3125 42.9375 C-160.28576172 44.25041016 -160.28576172 44.25041016 -159.23828125 45.58984375 C-152.90689224 54.75848737 -149.73007979 64.60362991 -147.21575928 75.3213501 C-146.3035729 79.19131791 -145.3357947 83.04715854 -144.36328125 86.90234375 C-144.1684314 87.67505615 -143.97358154 88.44776855 -143.77282715 89.24389648 C-139.78342064 104.84701853 -134.69541405 120.38268342 -127.85498047 134.98095703 C-125.818546 139.51205348 -125.818546 139.51205348 -126.74755859 142.01025391 C-128.01398416 144.02221656 -129.25882252 145.40766571 -131.01953125 146.99609375 C-131.62313477 147.5478125 -132.22673828 148.09953125 -132.84863281 148.66796875 C-133.49670898 149.25191406 -134.14478516 149.83585938 -134.8125 150.4375 C-136.17985458 151.69501897 -137.54571236 152.9541672 -138.91015625 154.21484375 C-139.94100342 155.16593018 -139.94100342 155.16593018 -140.99267578 156.13623047 C-150.62833243 165.08278883 -159.18937176 174.41834965 -167 185 C-168.15435547 186.53720703 -168.15435547 186.53720703 -169.33203125 188.10546875 C-178.99934029 201.46362432 -186.64213567 216.07191073 -191 232 C-191.24363281 232.84175781 -191.48726562 233.68351563 -191.73828125 234.55078125 C-194.11719944 244.17973581 -195.1777189 257.22673448 -190.26171875 266.14453125 C-185.82468084 272.669587 -181.55172951 276.85094342 -174.0625 279.75 C-167.82649203 280.50587975 -163.29286805 280.63884678 -158 277 C-151.50384812 270.80857166 -147.64030126 264.06408801 -144 255.9375 C-143.51144531 254.88111328 -143.02289063 253.82472656 -142.51953125 252.73632812 C-141.3322994 250.16399244 -140.16411476 247.58287963 -139 245 C-133.72 244.67 -128.44 244.34 -123 244 C-125.14934067 247.23562208 -127.29945623 250.47071077 -129.45141602 253.70458984 C-130.53419986 255.3324534 -131.61574942 256.96113773 -132.69726562 258.58984375 C-136.62329382 264.48793219 -140.6058957 270.32457985 -144.76538086 276.06103516 C-146.17903409 277.89806124 -146.17903409 277.89806124 -146 280 C-142.96673875 281.01108708 -140.61431156 281.22580445 -137.43359375 281.39453125 C-109.37995903 283.05569491 -88.84987136 287.09408729 -69.61010742 308.7199707 C-56.41113625 324.17444726 -47.0033597 341.22368725 -42 361 C-41.73509766 362.03785645 -41.73509766 362.03785645 -41.46484375 363.09667969 C-39.75314178 370.54563985 -39.61489533 377.88011978 -39.625 385.5 C-39.62521149 386.15963745 -39.62542297 386.8192749 -39.62564087 387.49890137 C-39.67099815 401.69766376 -40.24184433 420.03599025 -50.828125 430.87109375 C-55.60944241 434.84667063 -61.00475747 437.79524064 -66.42138672 440.81347656 C-81.41621703 449.21186008 -96.29834627 459.34383071 -108 472 C-104.92572284 475.67413612 -101.8135607 479.28884194 -98.5 482.75 C-97.9740625 483.30171875 -97.448125 483.8534375 -96.90625 484.421875 C-91.77705221 488.66817809 -86.40025916 489.73415993 -80 490.5625 C-78.62013916 490.7490918 -78.62013916 490.7490918 -77.21240234 490.93945312 C-65.79767838 492.34378251 -54.29115217 492.75917671 -42.8046875 493.17797852 C-8.83245643 494.5318982 -8.83245643 494.5318982 2 506 C4.29950291 508.79137519 6.55014579 511.60892411 8.75390625 514.4765625 C13.05118914 519.30446641 16.67931005 520.32410724 23 521 C26.31204681 521.09439519 29.61712783 521.04613118 32.9296875 520.9921875 C34.88020292 520.97464812 36.83072413 520.95774211 38.78125 520.94140625 C41.8129941 520.91071861 44.84443711 520.87547242 47.87597656 520.82861328 C64.04609371 520.59245634 80.11680754 520.53655615 94.8125 528.1875 C95.60599854 528.58259766 96.39949707 528.97769531 97.21704102 529.38476562 C103.8512986 532.75891759 109.9973326 536.59005177 116 541 C116.93457031 541.67417969 117.86914062 542.34835937 118.83203125 543.04296875 C124.53484061 547.23419008 130.03054152 551.63720452 135.5 556.125 C172.4340995 586.33075978 205.71783155 600.83624198 253.98483276 596.20509338 C259.4709546 595.65437438 264.95448613 595.08075893 270.4375 594.5 C295.69082439 591.84496205 319.74421556 591.48742535 345.10546875 593.27636719 C355.86275488 594.00117094 366.60658417 594.2524451 377.38735962 594.29956055 C379.21451935 594.30800385 381.04166482 594.32144424 382.8687439 594.34057617 C400.29709641 594.50446455 417.73295975 593.27379207 434.25 587.3125 C435.75264404 586.78813354 435.75264404 586.78813354 437.28564453 586.25317383 C466.07464132 575.97402266 503.44599919 556.50112342 517.2734375 527.82421875 C520.87189509 518.78938169 519.62069359 508.70360031 516.234375 499.8203125 C511.36864691 488.7030477 503.55218311 480.44601808 495 472 C494.40944824 471.38705078 493.81889648 470.77410156 493.21044922 470.14257812 C492.62408691 469.57474609 492.03772461 469.00691406 491.43359375 468.421875 C490.91724365 467.9072168 490.40089355 467.39255859 489.86889648 466.86230469 C487.88647133 465.71731715 487.88647133 465.71731715 485.11279297 466.65551758 C482.13208738 467.94294861 479.50301923 469.35507269 476.76171875 471.08984375 C475.78549561 471.70375977 474.80927246 472.31767578 473.8034668 472.95019531 C472.26106323 473.93391113 472.26106323 473.93391113 470.6875 474.9375 C469.61733643 475.61264648 468.54717285 476.28779297 467.44458008 476.98339844 C462.00519093 480.42292223 456.59412624 483.90315401 451.20922852 487.42724609 C427.82605585 502.7261266 404.89785518 514.1645287 377.375 519.75 C376.39950195 519.94859619 375.42400391 520.14719238 374.41894531 520.35180664 C357.90533189 523.53431633 341.81459751 524.34719961 325.01953125 524.31567383 C321.53353066 524.31253024 318.04839545 524.3360003 314.5625 524.36132812 C294.08493845 524.42024648 274.01926551 522.49879806 254 518.125 C252.77853271 517.86307861 251.55706543 517.60115723 250.29858398 517.33129883 C221.30922257 510.99378524 193.63768488 500.22646873 170 482 C169.10410156 481.31679688 168.20820313 480.63359375 167.28515625 479.9296875 C161.43155352 475.29961978 156.03548395 470.25889633 150.625 465.125 C145.57155267 460.33365747 140.52057094 455.55312826 135.25 451 C134.34765625 450.21625 133.4453125 449.4325 132.515625 448.625 C123.69716912 441.69908312 113.502224 436.54119456 103.53881836 431.50030518 C100.35590435 429.88796594 97.18414025 428.25395551 94.01171875 426.62109375 C93.39545624 426.30418579 92.77919373 425.98727783 92.14425659 425.6607666 C49.4026693 403.64278879 14.41433133 368.83338529 -1.24169922 322.43603516 C-10.24332457 293.51838618 -9.80447494 264.49398829 -4 235 C-3.32046671 231.43045162 -2.64755004 227.859754 -1.97924805 224.28808594 C-1.55058559 222.01339668 -1.11270203 219.74041536 -0.66333008 217.46972656 C2.7988973 202.66468075 2.7988973 202.66468075 -0.8125 188.625 C-1.77929688 187.02011719 -1.77929688 187.02011719 -2.765625 185.3828125 C-5.56672429 181.08527008 -8.45567819 176.84353445 -11.35644531 172.61279297 C-22.24829757 156.48463452 -24.12638485 140.94659388 -20.51342773 122.02758789 C-19.40648356 116.66980879 -18.22316881 111.33236114 -17 106 C-15.93394625 101.31329968 -14.87076396 96.62596569 -13.8125 91.9375 C-13.4261438 90.22663208 -13.4261438 90.22663208 -13.03198242 88.48120117 C-8.40606213 67.65619886 -7.84378688 46.81416025 -7.9375 25.5625 C-7.94252882 23.55924592 -7.94708926 21.55599061 -7.95117188 19.55273438 C-7.96205928 14.70179181 -7.97924642 9.85090997 -8 5 C-14.35149647 5 -20.63335433 7.8836577 -26.3125 10.5625 Z M298.3125 15.6875 C296.9056897 15.81451294 296.9056897 15.81451294 295.47045898 15.9440918 C229.04986378 22.2450433 175.42786509 38.66534895 121 79 C120.14664063 79.63164062 119.29328125 80.26328125 118.4140625 80.9140625 C116.24041117 82.56980413 114.12057281 84.27675836 112 86 C111.13197754 86.69963867 110.26395508 87.39927734 109.36962891 88.12011719 C100.204032 95.67976984 91.81312908 103.91293236 83.45019531 112.34399414 C81.11321885 114.69937393 78.76819152 117.04650581 76.421875 119.39257812 C74.90837973 120.91098558 73.39534253 122.42984979 71.8828125 123.94921875 C71.19414093 124.63900314 70.50546936 125.32878754 69.79592896 126.03947449 C26.54945622 169.70510605 4.63422621 219.82387987 4.75341797 281.19702148 C4.8137667 291.68989268 5.21202694 301.83599229 8 312 C8.18804199 312.69222656 8.37608398 313.38445312 8.56982422 314.09765625 C13.54586429 331.54744514 23.5185394 346.12629829 34.62744141 360.25292969 C35.83160558 361.78565805 37.0169881 363.33310341 38.19921875 364.8828125 C55.41446459 386.85274528 78.71339499 405.9654427 105 416 C105.99 416 106.98 416 108 416 C107.42961234 409.65814304 106.33101282 403.80114177 104.63671875 397.671875 C104.15688729 395.88281619 103.67707006 394.09375356 103.19726562 392.3046875 C102.4491875 389.5472565 101.69855967 386.79053633 100.9465332 384.03417969 C86.79288411 331.97889525 86.62339363 276.41325022 113.578125 228.046875 C119.38792033 218.0615845 127.09005951 209.36528246 135 201 C135.845625 200.07832031 136.69125 199.15664062 137.5625 198.20703125 C150.79865522 184.11245444 166.92477419 173.82389196 184 165 C185.2256084 164.34831027 186.45088739 163.69600052 187.67578125 163.04296875 C206.19121016 153.41830072 225.68071023 148.32899036 246.0625 144.3125 C247.07747559 144.11003662 248.09245117 143.90757324 249.13818359 143.69897461 C264.53540902 140.7752811 279.90588998 139.55630909 295.5625 139.5625 C296.38361267 139.56176483 297.20472534 139.56102966 298.05072021 139.56027222 C337.40242163 139.6521376 382.62712684 154.5986975 411.1875 182.6875 C438.31057727 210.39680448 455.69681292 252.36627423 455.421875 291.14111328 C454.26287703 325.96442737 438.05807732 359.3875891 414 384 C413.33613281 384.71414063 412.67226563 385.42828125 411.98828125 386.1640625 C387.0568971 412.40212296 350.24394644 425.22123667 314.6328125 426.3359375 C312.13035246 426.36578562 309.62763577 426.37837391 307.125 426.375 C306.46345917 426.37478851 305.80191833 426.37457703 305.12033081 426.37435913 C273.15272853 426.27357523 243.20685245 419.12121831 220 396 C202.92403809 377.43070302 195.36213871 354.66238683 195.625 329.8125 C195.62932037 329.03997894 195.63364075 328.26745789 195.63809204 327.4715271 C195.71286926 316.07780865 196.14901428 305.08463246 199 294 C199.17692383 293.30970703 199.35384766 292.61941406 199.53613281 291.90820312 C202.42041702 280.97880838 206.09154186 269.49120343 215 262 C215.69738281 261.39800781 216.39476562 260.79601562 217.11328125 260.17578125 C228.53114019 250.61537304 241.04216521 244.80886417 255 240 C256.04414063 239.63519531 257.08828125 239.27039063 258.1640625 238.89453125 C274.22487309 234.28408293 293.32108586 235.56583089 309 241 C310.0725 241.36222656 311.145 241.72445312 312.25 242.09765625 C319.72392062 244.90990955 325.77469145 249.05319084 332 254 C332.83660156 254.62003906 333.67320312 255.24007812 334.53515625 255.87890625 C344.86958953 264.77208735 350.56350474 278.71241883 352 292 C353.2644553 312.36174441 350.1819355 332.73170324 337 349 C336.52433594 349.62390625 336.04867188 350.2478125 335.55859375 350.890625 C325.80694671 362.19540642 307.30216238 367.42302365 293.125 368.875 C283.78601439 369.31594484 277.15378587 367.19817811 270 361 C262.19613341 351.95028331 258.83109716 340.96752855 258.6875 329.25 C258.65849609 328.4765625 258.62949219 327.703125 258.59960938 326.90625 C258.5249684 320.06224639 260.46124853 315.14375461 264.75390625 309.828125 C270.94530878 304.42569169 278.02391831 301.03972965 286.3125 300.4375 C290.75167355 301.11466207 293.21727992 302.58446256 296 306 C299.85080977 312.02766678 301.30560286 318.57779484 302.75 325.5 C302.97042969 326.51320313 303.19085937 327.52640625 303.41796875 328.5703125 C303.95492471 331.04497909 304.48200702 333.52130767 305 336 C302.54059698 334.62688417 300.08224671 333.25196683 297.625 331.875 C296.89780762 331.46773682 296.17061523 331.06047363 295.42138672 330.64086914 C290.48593219 327.86570168 285.62161582 324.99894278 280.8203125 321.99609375 C279.0534222 320.83998708 279.0534222 320.83998708 277 321 C274.12796245 334.28720136 274.12796245 334.28720136 278 347 C280.71119057 350.64778368 282.63646639 352.66842111 287.1484375 353.765625 C291.68867052 354.04190693 295.47415076 353.41153107 299.875 352.375 C300.67075439 352.19114746 301.46650879 352.00729492 302.28637695 351.81787109 C308.11429319 350.39001668 313.12802122 348.58821763 318 345 C318.60714844 344.57074219 319.21429687 344.14148438 319.83984375 343.69921875 C330.12858711 335.70686887 335.54563371 323.67920391 337.2734375 310.9921875 C338.00047741 295.83620169 331.60414059 276.94682976 321.765625 265.37109375 C317.38575722 261.27063133 312.64476723 258.04994178 307 256 C306.18273437 255.70222656 305.36546875 255.40445313 304.5234375 255.09765625 C287.96563858 250.25528109 268.18508176 251.35013851 252 257 C250.96359375 257.33902344 249.9271875 257.67804688 248.859375 258.02734375 C235.19626924 263.05264836 223.1026994 272.28502083 216.29296875 285.25 C205.65919353 308.43214744 204.94095836 336.52321021 213.53515625 360.4375 C218.06926545 371.46445356 224.70038272 379.66398089 233 388 C233.63421875 388.66902344 234.2684375 389.33804687 234.921875 390.02734375 C254.87883321 409.49862377 287.82296661 410.61049917 313.94506836 410.41918945 C348.27514188 409.93015566 379.35000615 395.5669537 404 372 C404.99193359 371.1028125 404.99193359 371.1028125 406.00390625 370.1875 C427.07349018 350.43742537 436.94347656 323.03262872 438.22265625 294.69140625 C438.73919057 276.7694743 436.0150484 258.88236997 430 242 C429.75266113 241.30068359 429.50532227 240.60136719 429.25048828 239.88085938 C425.19627082 228.6929498 419.72440057 218.79791984 413 209 C412.42636719 208.16082031 411.85273437 207.32164062 411.26171875 206.45703125 C389.02700642 176.16706334 352.22887637 161.55269716 316.21240234 155.53417969 C266.68352849 148.45990553 204.84384514 164.19533757 164.34375 193.453125 C163.22414847 194.29545432 162.10961796 195.14456196 161 196 C160.4121875 196.45310547 159.824375 196.90621094 159.21875 197.37304688 C122.42695965 226.27521839 109.83474163 269.24215673 104 314 C100.99100016 355.90602947 117.17459515 405.49186368 144.34375 437.58740234 C147.45575003 441.16465522 150.70777484 444.58866394 154 448 C154.77730469 448.84046875 155.55460938 449.6809375 156.35546875 450.546875 C192.67480229 488.75213708 249.15947243 507.85587192 300.75 509.5625 C301.92304688 509.60568359 303.09609375 509.64886719 304.3046875 509.69335938 C329.48763582 510.56507682 354.31008991 509.24067195 379 504 C379.77037598 503.84225098 380.54075195 503.68450195 381.33447266 503.52197266 C401.31478484 499.27412043 419.93976556 488.97853394 437 478 C438.36170303 477.14018752 439.72369486 476.28083229 441.0859375 475.421875 C454.85319838 466.68080702 468.54880019 457.55878947 481 447 C481.83917969 446.29488281 482.67835938 445.58976562 483.54296875 444.86328125 C523.66938815 410.07895702 539.18710354 339.3815607 543 289 C547.18106333 227.42056918 537.81766918 160.38469981 500 110 C499.46439453 109.28038086 498.92878906 108.56076172 498.37695312 107.81933594 C491.24446349 98.25705049 483.81231808 89.01324076 476 80 C475.38898438 79.27683594 474.77796875 78.55367187 474.1484375 77.80859375 C441.30808655 39.28732901 392.26752415 20.33711215 342.57421875 16.37890625 C327.79565193 15.28003129 313.10317368 14.34082488 298.3125 15.6875 Z M559 357 C558.66227261 359.70784994 558.32969313 362.41616996 558 365.125 C557.90460937 365.88554687 557.80921875 366.64609375 557.7109375 367.4296875 C557.20169812 371.64909952 556.89111932 375.74004344 557 380 C573.6301695 380.79406413 573.6301695 380.79406413 588 374 C593.79765498 368.0717798 593.79765498 368.0717798 598 361 C584.87707025 356.98658621 572.70343971 354.50125412 559 357 Z M530.95825195 402.1809082 C530.36016724 403.32885864 530.36016724 403.32885864 529.75 404.5 C529.30164795 405.29301514 528.8532959 406.08603027 528.39135742 406.90307617 C526.8898703 409.58303668 525.44348933 412.28839855 524 415 C522.89858129 417.02812963 521.79567525 419.05545213 520.69140625 421.08203125 C519.00207687 424.18937347 517.31944361 427.29946359 515.65673828 430.42114258 C512.13811124 437.01497512 508.4110406 443.34173613 504.1953125 449.51171875 C502.8068944 451.91983092 502.8068944 451.91983092 503.05859375 454.52734375 C504.21765975 457.57169552 505.77625005 459.43647194 507.9375 461.875 C518.21018765 474.05963898 526.00715515 487.81965111 533.70703125 501.72631836 C534.51077173 503.13969357 535.34685646 504.53576936 536.23046875 505.90063477 C539.01063115 510.24709449 539.62354075 513.8941107 539.25 518.9375 C539.19763184 519.6696875 539.14526367 520.401875 539.09130859 521.15625 C537.94699304 532.02608245 533.19424726 541.91826264 524.6875 548.875 C522.79188518 550.25030123 520.89605006 551.62529886 519 553 C517.14497901 554.64249384 515.31166338 556.30980335 513.5 558 C509.05562316 562.09084686 504.46433079 565.92406463 499.75390625 569.703125 C495.99607183 572.83731882 492.49146298 576.21795945 488.99609375 579.640625 C482.10523207 585.06706627 473.64756452 588.07496454 465.48828125 591.1015625 C464.51698776 591.46470551 463.54569427 591.82784851 462.54496765 592.20199585 C460.503175 592.96284458 458.46025392 593.72067141 456.41625977 594.47558594 C453.33331693 595.61729088 450.25750721 596.77688842 447.18164062 597.9375 C445.18009847 598.6807951 443.17815742 599.42301711 441.17578125 600.1640625 C440.27837723 600.50474762 439.38097321 600.84543274 438.45637512 601.19644165 C425.16239313 606.04925305 412.3338348 607.45204492 398.3203125 607.328125 C396.77147609 607.32505506 395.22263688 607.32318835 393.67379761 607.32244873 C390.45852765 607.31789268 387.24351474 607.30364602 384.02832031 607.28125 C379.9300939 607.25282772 375.83206698 607.24201797 371.7337513 607.2375679 C367.78341338 607.232392 363.83312403 607.21789227 359.8828125 607.203125 C359.14334507 607.20124428 358.40387764 607.19936356 357.64200211 607.19742584 C350.02644542 607.17236911 342.56013898 606.97754707 335 606 C311.54754233 604.60612086 288.54700222 607.28958447 265.30831909 610.13696289 C223.36598246 615.22250656 182.47112134 611.41116298 148 585 C146.97261719 584.23171875 145.94523437 583.4634375 144.88671875 582.671875 C139.57046756 578.66592145 134.38939807 574.51047897 129.25463867 570.27514648 C101.12578157 546.54028831 101.12578157 546.54028831 66.72583008 536.84228516 C65.6973848 536.83202301 64.66893951 536.82176086 63.60932922 536.81118774 C62.50719589 536.80388641 61.40506256 536.79658508 60.26953125 536.7890625 C57.91600875 536.76098686 55.56249322 536.73232235 53.20898438 536.703125 C49.51391855 536.66195162 45.81898176 536.62504633 42.1237793 536.59863281 C38.54709289 536.57087503 34.9709897 536.52499816 31.39453125 536.4765625 C30.30251907 536.47330963 29.2105069 536.47005676 28.08540344 536.46670532 C12.58269717 536.22075284 1.58634171 529.48297127 -10.9375 521 C-31.83820505 506.84859391 -53.18888329 503.1240597 -78.38183594 506.30029297 C-99.20185679 510.31989857 -115.52335283 533.72445466 -127 550 C-127.44923828 550.63647461 -127.89847656 551.27294922 -128.36132812 551.92871094 C-151.29915284 584.76295928 -166.37464357 620.05735534 -159.39794922 660.90966797 C-153.45320598 692.13598185 -134.8805449 719.5247404 -113 742 C-112.30455078 742.72123047 -111.60910156 743.44246094 -110.89257812 744.18554688 C-101.14619414 754.26092272 -91.36413901 763.772305 -80 772 C-78.78763672 772.90492188 -78.78763672 772.90492188 -77.55078125 773.828125 C-62.38666321 784.84721248 -45.73783782 793.65718118 -29 802 C-28.27506348 802.36689941 -27.55012695 802.73379883 -26.80322266 803.11181641 C34.9099234 833.97591359 113.84433663 843.2671434 182 844 C182.79565369 844.00988953 183.59130737 844.01977905 184.41107178 844.02996826 C271.29841986 845.09196295 359.33272822 838.4523635 553.13134766 770.35058594 C555.80591011 769.09137917 558.48579632 767.84445693 561.16796875 766.6015625 C571.40832974 761.8360109 581.44279621 756.74398071 591.39257812 751.39941406 C594.20080431 749.8922275 597.01455648 748.39562494 599.828125 746.8984375 C625.97169373 732.92620147 650.7784011 717.86138372 673.28955078 698.46777344 C675.06936548 696.94047598 676.8596658 695.42623406 678.65234375 693.9140625 C684.39419218 689.05698349 689.98702747 684.18268685 695.2265625 678.77734375 C696.99867723 677.00132569 698.83976147 675.37565197 700.75 673.75 C710.13432357 665.63781459 718.30154279 656.70736119 726 647 C726.72703125 646.14019531 727.4540625 645.28039062 728.203125 644.39453125 C750.97792542 617.43904195 766.67541813 584.47660336 763.71875 548.5859375 C760.98881522 525.74898308 752.07620862 504.17656069 738 486 C736.95779297 484.60974609 736.95779297 484.60974609 735.89453125 483.19140625 C697.90688466 434.40945571 631.17415765 417.47570524 574 403.5 C572.68887238 403.17926514 572.68887238 403.17926514 571.35125732 402.85205078 C557.77131473 399.44419511 557.77131473 399.44419511 544 397 C543.18305664 396.87496094 542.36611328 396.74992187 541.52441406 396.62109375 C535.8810111 396.11247079 533.79170485 397.30800761 530.95825195 402.1809082 Z " fill="#123A7E" transform="translate(210,54)"/>
<path d="M0 0 C4.86864688 4.64219819 6.55902529 9.48632569 8 16 C8 16.66 8 17.32 8 18 C8.99 17.505 8.99 17.505 10 17 C12.9375 16.6875 12.9375 16.6875 16 17 C18.77939338 19.97034407 20.03304047 23.31012486 21.5 27.0625 C27.28167053 41.10369985 35.48543399 57.65590171 47.72265625 67.1015625 C50 69 50 69 50.5625 71.9375 C49.83327419 81.56328068 46.24006994 91.46638391 38.875 97.8125 C34.69835911 100.99037894 32.61683144 101.41888543 27.5 100.73828125 C17.78120662 97.86820008 12.60505651 87.23138166 8 79 C7.84966309 79.79994385 7.69932617 80.5998877 7.54443359 81.42407227 C-0.65215949 124.46702801 -0.65215949 124.46702801 -13.52734375 133.83984375 C-20.346543 138.09558484 -25.95607033 139.86928312 -34 139 C-43.5445314 136.65737308 -49.87500891 132.62125483 -55.1875 124.375 C-68.05823663 101.41360585 -66.67969846 70.48012013 -59.86328125 45.765625 C-54.33654725 26.78259164 -46.56615437 9.93816285 -28.7890625 -0.26953125 C-19.80985589 -4.49065329 -8.63836402 -5.19544771 0 0 Z M-33 19 C-36.03184353 22.85327897 -36.84083284 27.02224345 -37.625 31.75 C-37.74979736 32.46663818 -37.87459473 33.18327637 -38.00317383 33.92163086 C-38.34908804 35.94547001 -38.6752224 37.97266159 -39 40 C-39.13535156 40.83144531 -39.27070312 41.66289063 -39.41015625 42.51953125 C-41.38547496 57.07011835 -41.53211182 74.74474006 -32.4765625 87.07421875 C-28.70221268 91.64347317 -28.70221268 91.64347317 -23.1875 93.4375 C-19.44301484 92.92355106 -18.49939317 91.77572646 -16.22436523 88.87475586 C-14.02269904 85.50355054 -12.74908085 81.85053242 -11.4375 78.0625 C-11.14230469 77.23290771 -10.84710937 76.40331543 -10.54296875 75.54858398 C-5.06803814 62.39582212 -5.06803814 62.39582212 -5 49 C-5.9075 49.825 -6.815 50.65 -7.75 51.5 C-10.53624497 54.03294997 -10.87258261 54 -15 54 C-15.17015625 52.88882813 -15.3403125 51.77765625 -15.515625 50.6328125 C-18.09376237 34.43984674 -18.09376237 34.43984674 -27 21 C-29.81509993 18.7226499 -29.81509993 18.7226499 -33 19 Z M-4 47 C-3 49 -3 49 -3 49 Z " fill="#022D76" transform="translate(759,655)"/>
<path d="M0 0 C1.33417969 -0.00386719 1.33417969 -0.00386719 2.6953125 -0.0078125 C4.875 0.125 4.875 0.125 5.875 1.125 C6.5 4.3125 6.5 4.3125 5.875 8.125 C3.15880253 10.57017998 0.01562035 12.27580274 -3.125 14.125 C-11.86169876 19.84226709 -16.40146624 29.44293817 -19.0625 39.3125 C-22.29025237 56.05646544 -20.64684045 73.93241864 -11.8359375 88.78125 C-8.2853464 93.64507342 -3.75741313 97.84216589 1.875 100.125 C7.66128988 100.86022165 13.11142483 100.75439061 17.875 97.125 C22.85208974 89.58734963 24.05129398 81.47499376 22.4140625 72.63671875 C18.28251612 57.39860358 10.13973503 48.00152108 -3.125 40.125 C-4.68991242 39.14969352 -6.25273195 38.17101271 -7.8125 37.1875 C-8.905625 36.506875 -9.99875 35.82625 -11.125 35.125 C-9.80968655 26.48151162 -3.22453383 20.76165102 3.0625 15.125 C8.11657643 11.53099009 12.38008409 10.58280679 18.4453125 11.4609375 C30.31000328 14.70369865 37.99016688 24.34310974 44.01171875 34.43359375 C52.12995835 49.61548757 54.30991748 68.8502993 51.2265625 85.66015625 C50.30909695 88.32237467 49.23058674 90.65847383 47.875 93.125 C47.37742187 94.11371094 46.87984375 95.10242188 46.3671875 96.12109375 C39.71785476 108.50740893 29.54538235 118.25265386 16.125 123 C-0.53931663 127.78218946 -17.85049798 125.25476619 -32.9921875 117.125 C-43.03375327 110.71442435 -48.47676811 100.20675921 -51.265625 88.8125 C-55.72782878 67.22324141 -49.73084217 44.17858383 -37.93164062 25.89404297 C-29.35766296 13.29867525 -16.42798142 -0.04789499 0 0 Z " fill="#022D76" transform="translate(621.125,709.875)"/>
<path d="M0 0 C9.86397171 4.95440397 14.72166157 18.67212425 18.5 28.4375 C18.75531494 29.08702637 19.01062988 29.73655273 19.27368164 30.40576172 C20.85228699 34.727381 21.23635026 38.42071367 21 43 C19.02 43.495 19.02 43.495 17 44 C12.08293044 38.66105169 7.87718653 33.13532814 4 27 C12.59653317 45.6369285 21.95409169 63.90046035 31.92578125 81.83984375 C33 84 33 84 33 86 C37.48799816 82.13564427 41.87254105 78.2488548 46 74 C48 72 48 72 50.625 71.875 C51.40875 71.91625 52.1925 71.9575 53 72 C57.04266802 78.50342247 57.72671818 85.99140628 56.5 93.5 C55.22458084 98.47593108 52.37233448 102.44616571 49.4609375 106.6171875 C47.73865343 108.96042387 47.73865343 108.96042387 48 112 C48.80438481 113.88294634 49.68248824 115.73474325 50.59765625 117.56640625 C51.14905273 118.68394287 51.70044922 119.80147949 52.26855469 120.95288086 C52.56193726 121.54261688 52.85531982 122.13235291 53.15759277 122.73995972 C71.40430303 159.48998612 71.40430303 159.48998612 68.38671875 171.42578125 C65.58432194 179.363848 60.75721818 185.36994727 53.875 190.1875 C50.10234743 191.25368442 48.45917096 190.80478485 45 189 C26.78493918 169.00597358 15.71233441 137.86248307 6 113 C5.57589844 111.9157373 5.15179687 110.83147461 4.71484375 109.71435547 C-5.83759689 82.50244604 -16.32091571 53.46370742 -16.5 23.9375 C-16.50636475 23.06399902 -16.51272949 22.19049805 -16.51928711 21.29052734 C-16.39450908 15.08538211 -15.60731711 8.40549579 -11.72558594 3.33544922 C-8.00323424 -0.19105407 -4.94789625 -0.95485717 0 0 Z " fill="#022D76" transform="translate(801,563)"/>
<path d="M0 0 C1.16015625 -0.05607422 1.16015625 -0.05607422 2.34375 -0.11328125 C4.5 0.3125 4.5 0.3125 6.06164551 2.05781555 C10.46367031 8.95818463 9.8349135 18.40909618 9.78125 26.30078125 C9.77685913 27.45951248 9.77246826 28.61824371 9.76794434 29.81208801 C9.6052822 44.34869678 8.3792223 58.81221141 7.18218994 73.29248047 C6.69651104 79.17724921 6.22391769 85.06301673 5.76091003 90.94960976 C5.6004362 92.95923696 5.43156463 94.96818823 5.2623291 96.97709656 C4.53247217 106.11297426 4.38118398 115.15635828 4.5 124.3125 C13.46984645 122.66031761 22.10743053 120.71972891 30.77514648 117.85083008 C34.67710826 116.61507687 37.60213563 115.7990435 41.5 117.3125 C43.97424446 121.02386669 43.69539921 122.51509161 43.10546875 126.76953125 C41.27877891 134.44162856 37.25752796 141.24312712 30.5625 145.5625 C18.44637426 149.96836391 2.70656783 147.58849247 -9.75 146.0625 C-10.70124756 145.95325195 -11.65249512 145.84400391 -12.63256836 145.73144531 C-19.7737864 144.76807306 -25.87003147 143.07733871 -30.9375 137.75 C-34.72666301 131.83890571 -33.78896692 124.97135283 -33.8125 118.1875 C-33.81545074 117.44205933 -33.81840149 116.69661865 -33.82144165 115.92858887 C-33.83630157 98.83923319 -32.84933967 81.79406662 -31.81838608 64.74253082 C-31.68847907 62.57880726 -31.56219895 60.41489743 -31.43667603 58.25091553 C-28.95874453 15.89886249 -28.95874453 15.89886249 -21.73828125 8.92578125 C-15.43702668 4.3840393 -7.88198811 0.24959629 0 0 Z " fill="#022D76" transform="translate(513.5,696.6875)"/>
<path d="M0 0 C6.31201299 5.24920998 10.66920824 11.0530224 11.6875 19.3125 C12.23873917 26.25811351 11.43782935 32.65928475 7.140625 38.3671875 C2.36012825 43.46497386 -1.89365761 45.32497537 -8.875 45.625 C-12.78731066 45.50624521 -15.3990884 45.13486749 -18.3125 42.3125 C-20.10988605 36.44103889 -18.72600399 31.11838003 -17.3125 25.3125 C-19.22100447 24.67899377 -19.22100447 24.67899377 -21.3125 24.3125 C-23.08440909 25.66694301 -23.08440909 25.66694301 -24.3125 27.3125 C-23.9825 28.3025 -23.6525 29.2925 -23.3125 30.3125 C-21.9925 30.3125 -20.6725 30.3125 -19.3125 30.3125 C-19.79109241 31.91683809 -20.27039558 33.52096416 -20.75 35.125 C-21.01683594 36.01832031 -21.28367187 36.91164063 -21.55859375 37.83203125 C-22.11637873 39.66723055 -22.70594575 41.49283726 -23.3125 43.3125 C-32.12549886 43.76061859 -32.12549886 43.76061859 -36.3125 40.3125 C-39.05903126 35.82520949 -38.92039423 31.42188947 -38.3125 26.3125 C-36.48328599 20.09098168 -32.64972061 15.86286119 -27.3125 12.3125 C-22.75562778 10.17949598 -18.27697099 9.65849783 -13.3125 10.3125 C-9.80194291 11.70347545 -6.4188029 13.09761662 -4.3125 16.3125 C-2.4018405 23.68218665 -4.36466523 30.09340615 -6.3125 37.3125 C-2.36047889 35.92820008 -2.36047889 35.92820008 0.5 32.9375 C2.56584989 26.63122138 2.62989402 20.19203727 0.5625 13.875 C-2.86988542 9.18407325 -6.78596879 6.07911394 -12.3125 4.3125 C-20.33843547 3.53956557 -28.72979083 3.01498643 -35.3125 8.3125 C-40.95298495 13.30614034 -43.66724898 19.13256822 -44.59375 26.5703125 C-44.89171067 33.69653847 -43.01783002 39.65419143 -39.1875 45.625 C-33.02695425 51.38377103 -25.66196675 53.45791887 -17.3125 53.3125 C-11.8931751 52.69621089 -6.58914688 51.68792928 -1.3125 50.3125 C0.18571059 53.68347383 0.6875 55.51692119 0.6875 59.3125 C-11.27219958 63.68799985 -24.34728873 63.6815398 -36.3125 59.3125 C-44.23168637 55.51712958 -48.92184995 49.90879444 -52.34375 41.8984375 C-55.6311867 32.31008045 -55.30732719 22.6287385 -51.3125 13.3125 C-46.63090635 4.29933839 -39.84148309 -1.33470965 -30.3125 -4.6875 C-20.07875407 -7.13470011 -8.76874706 -6.14146979 0 0 Z " fill="#022D76" transform="translate(424.3125,774.6875)"/>
<path d="M0 0 C0.11923037 6.04497957 -0.19328528 11.67689445 -1.25 17.625 C-1.35957031 18.3365625 -1.46914062 19.048125 -1.58203125 19.78125 C-2.62588633 25.78066975 -4.54723779 30.63668593 -9.03515625 34.9609375 C-9.70417969 35.42757812 -10.37320313 35.89421875 -11.0625 36.375 C-12.06990234 37.09816406 -12.06990234 37.09816406 -13.09765625 37.8359375 C-20.99802585 42.67024991 -31.76881394 40.09364819 -40.25 38.0625 C-47.75656591 36.24343409 -47.75656591 36.24343409 -49 35 C-49.56185933 24.32467276 -49.29514912 10.07582849 -43 1 C-30.97717585 -11.901204 -14.42133594 -4.87408747 0 0 Z " fill="#194082" transform="translate(103,235)"/>
<path d="M0 0 C0.82111267 -0.00073517 1.64222534 -0.00147034 2.48822021 -0.00222778 C41.58419881 0.08904062 86.71176266 14.81602829 115.04736328 42.77709961 C117.54298403 45.30136995 120.00138722 47.85570606 122.4375 50.4375 C122.1075 51.0975 121.7775 51.7575 121.4375 52.4375 C120.81746094 51.77105469 120.19742187 51.10460937 119.55859375 50.41796875 C99.05586314 29.07961011 73.09962395 17.88616818 45.4375 8.4375 C43.90355591 7.90709106 43.90355591 7.90709106 42.33862305 7.3659668 C39.97847357 6.61063157 37.77132699 6.03124224 35.3359375 5.62109375 C34.24007324 5.4351062 34.24007324 5.4351062 33.12207031 5.24536133 C32.35991211 5.12314209 31.59775391 5.00092285 30.8125 4.875 C30.0090918 4.74569092 29.20568359 4.61638184 28.37792969 4.4831543 C-25.52992131 -3.97308528 -88.17320839 9.14753389 -132.8828125 40.74609375 C-135.82728603 42.91867844 -138.70291007 45.15470236 -141.5625 47.4375 C-142.8928125 48.46230469 -142.8928125 48.46230469 -144.25 49.5078125 C-155.88215892 58.67151909 -166.40376595 69.04513714 -174.5625 81.4375 C-175.66851562 83.03658203 -175.66851562 83.03658203 -176.796875 84.66796875 C-201.76430802 121.34806521 -207.9172029 172.45693079 -200.03385925 215.26020813 C-197.59895957 227.87282966 -194.14317686 240.28564901 -190.9519043 252.72241211 C-190.06330486 256.19262174 -189.18177869 259.66457278 -188.30078125 263.13671875 C-188.02583328 264.19815598 -187.75088531 265.2595932 -187.46760559 266.35319519 C-187.21701889 267.34225357 -186.96643219 268.33131195 -186.70825195 269.3503418 C-186.37540947 270.64695992 -186.37540947 270.64695992 -186.0358429 271.96977234 C-185.5470589 274.51800071 -185.4775628 276.84933154 -185.5625 279.4375 C-191.00460482 278.93191091 -195.26441694 277.46871476 -200.125 274.9375 C-200.81682373 274.58292725 -201.50864746 274.22835449 -202.22143555 273.86303711 C-230.14352955 259.27544089 -230.14352955 259.27544089 -234.5625 250.4375 C-231.25627113 251.8696536 -228.54435692 253.88975864 -225.69067383 256.06787109 C-219.80551271 260.55537339 -213.82335927 264.67450091 -207.375 268.3125 C-206.77139648 268.65676025 -206.16779297 269.00102051 -205.54589844 269.35571289 C-199.76437468 272.53585799 -193.674577 274.9703211 -187.5625 277.4375 C-187.86953857 276.21981934 -188.17657715 275.00213867 -188.49291992 273.74755859 C-189.66035685 269.11473705 -190.82439748 264.48106716 -191.98754883 259.84716797 C-192.48600961 257.86322065 -192.9853229 255.87948727 -193.4855957 253.89599609 C-196.20925269 243.0946253 -198.86998765 232.28354269 -201.34375 221.421875 C-201.54876633 220.52278412 -201.75378265 219.62369324 -201.9650116 218.69735718 C-211.73334249 175.35069407 -204.02908874 123.54724011 -180.5625 85.4375 C-175.02797486 77.1575706 -168.39850972 69.65632626 -161.5625 62.4375 C-161.11632324 61.95345703 -160.67014648 61.46941406 -160.21044922 60.97070312 C-146.2651041 45.89927733 -129.72300604 34.82222761 -111.5625 25.4375 C-110.3368916 24.78581027 -109.11161261 24.13350052 -107.88671875 23.48046875 C-89.37128984 13.85580072 -69.88178977 8.76649036 -49.5 4.75 C-48.48502441 4.54753662 -47.47004883 4.34507324 -46.42431641 4.13647461 C-31.02709098 1.2127811 -15.65661002 -0.00619091 0 0 Z " fill="#D3DBE7" transform="translate(505.5625,192.5625)"/>
<path d="M0 0 C0.3486276 33.08744117 -0.48272785 64.5875236 -8 97 C-8.84419887 100.74519083 -9.6809285 104.49196546 -10.51464844 108.23950195 C-11.031025 110.55197777 -11.55341855 112.86312168 -12.08300781 115.17260742 C-16.71902551 135.57896967 -15.4524835 151.06399616 -4.18554688 169.14257812 C-1.62990934 173.1465506 0.99480261 177.10475617 3.67431641 181.02685547 C12.12489221 193.40777486 8.83628052 205.53009353 6.20507812 219.5390625 C5.82445531 221.52608699 5.4435936 223.51306574 5.0625 225.5 C4.68448418 227.51803039 4.30752317 229.53625867 3.93164062 231.5546875 C3.24347552 235.23757416 2.55047241 238.91944284 1.84790039 242.59960938 C1.69980927 243.38031296 1.55171814 244.16101654 1.3991394 244.96537781 C1.09445463 246.5185154 0.7538073 248.06464133 0.3972168 249.60668945 C-0.17368706 253.04649921 -0.18279872 256.47185929 -0.203125 259.94921875 C-0.21167511 261.10645195 -0.21167511 261.10645195 -0.22039795 262.2870636 C-0.22982694 263.92353966 -0.23637357 265.56003453 -0.24023438 267.1965332 C-0.24979279 269.63464464 -0.28077125 272.07185712 -0.3125 274.50976562 C-0.4132148 289.18648127 1.21863394 303.52939528 6.125 317.4375 C6.42212891 318.30165527 6.71925781 319.16581055 7.02539062 320.05615234 C17.1256299 348.53696054 35.10653654 374.2357123 57 395 C53.36689481 395 52.52751643 393.9121291 50.02905273 391.44628906 C49.52446533 390.92776367 49.01987793 390.40923828 48.5 389.875 C47.97027588 389.33584961 47.44055176 388.79669922 46.89477539 388.24121094 C41.08617315 382.21568277 35.94454884 375.74385458 31 369 C30.31357422 368.06414062 30.31357422 368.06414062 29.61328125 367.109375 C3.84288277 331.59386785 -8.37502221 291.22053756 -1.8203125 247.2644043 C-0.9603366 242.15953772 0.00041025 237.07916543 1 232 C1.67953329 228.43045162 2.35244996 224.859754 3.02075195 221.28808594 C3.44941441 219.01339668 3.88729797 216.74041536 4.33666992 214.46972656 C7.7988973 199.66468075 7.7988973 199.66468075 4.1875 185.625 C3.22070312 184.02011719 3.22070312 184.02011719 2.234375 182.3828125 C-0.56672429 178.08527008 -3.45567819 173.84353445 -6.35644531 169.61279297 C-17.24829757 153.48463452 -19.12638485 137.94659388 -15.51342773 119.02758789 C-14.40648356 113.66980879 -13.22316881 108.33236114 -12 103 C-10.93394625 98.31329968 -9.87076396 93.62596569 -8.8125 88.9375 C-8.5549292 87.79692139 -8.2973584 86.65634277 -8.03198242 85.48120117 C-3.42010921 64.71943609 -2.86940746 43.75064579 -2.4375 22.5625 C-2.39418711 20.55923813 -2.35056936 18.55598283 -2.30664062 16.55273438 C-2.20091965 11.7018913 -2.09929931 6.8509786 -2 2 C-2.66 1.67 -3.32 1.34 -4 1 C-2 0 -2 0 0 0 Z " fill="#CED6E4" transform="translate(204,57)"/>
<path d="M0 0 C18.3749132 0.60643278 36.56565369 3.99004648 54.5625 7.5625 C55.59753662 7.76004883 56.63257324 7.95759766 57.69897461 8.16113281 C58.64522705 8.35674805 59.59147949 8.55236328 60.56640625 8.75390625 C61.40115479 8.92220947 62.23590332 9.0905127 63.09594727 9.26391602 C63.72428467 9.50682373 64.35262207 9.74973145 65 10 C65.495 11.485 65.495 11.485 66 13 C44.51383736 17.81427663 22.74947866 12.45026593 3 4 C2.01 3.34 1.02 2.68 0 2 C0 1.34 0 0.68 0 0 Z " fill="#10397E" transform="translate(528,624)"/>
<path d="M0 0 C0.66 0 1.32 0 2 0 C1.38125 1.8253125 1.38125 1.8253125 0.75 3.6875 C-16.48667836 55.60459745 -14.80919004 97.98643474 -1.3894043 150.28491211 C-0.50080486 153.75512174 0.38072131 157.22707278 1.26171875 160.69921875 C1.53666672 161.76065598 1.81161469 162.8220932 2.09489441 163.91569519 C2.34548111 164.90475357 2.59606781 165.89381195 2.85424805 166.9128418 C3.07614304 167.77725388 3.29803802 168.64166595 3.5266571 169.53227234 C4.0154411 172.08050071 4.0849372 174.41183154 4 177 C-1.44210482 176.49441091 -5.70191694 175.03121476 -10.5625 172.5 C-11.25432373 172.14542725 -11.94614746 171.79085449 -12.65893555 171.42553711 C-40.58102955 156.83794089 -40.58102955 156.83794089 -45 148 C-41.69377113 149.4321536 -38.98185692 151.45225864 -36.12817383 153.63037109 C-30.24301271 158.11787339 -24.26085927 162.23700091 -17.8125 165.875 C-17.20889648 166.21926025 -16.60529297 166.56352051 -15.98339844 166.91821289 C-10.20187468 170.09835799 -4.112077 172.5328211 2 175 C1.69296143 173.78231934 1.38592285 172.56463867 1.06958008 171.31005859 C-0.09785685 166.67723705 -1.26189748 162.04356716 -2.42504883 157.40966797 C-2.92350961 155.42572065 -3.4228229 153.44198727 -3.9230957 151.45849609 C-6.64675269 140.6571253 -9.30748765 129.84604269 -11.78125 118.984375 C-11.98626633 118.08528412 -12.19128265 117.18619324 -12.4025116 116.25985718 C-21.03182372 77.96755428 -15.14303163 36.0318235 0 0 Z " fill="#C6D0E0" transform="translate(316,295)"/>
<path d="M0 0 C18.39804273 3.78158384 38.74571838 24.16791409 49 39 C49 39.66 49 40.32 49 41 C43.56368538 39.57380635 39.86642988 37.00199783 35.5 33.625 C34.80221436 33.09189209 34.10442871 32.55878418 33.38549805 32.00952148 C23.6352772 24.49057356 14.38298389 16.53186078 5.625 7.875 C5.05885986 7.31820557 4.49271973 6.76141113 3.90942383 6.18774414 C0 2.24646166 0 2.24646166 0 0 Z " fill="#436399" transform="translate(297,544)"/>
<path d="M0 0 C17.84425012 16.5760658 24.99957075 53.0895412 26.2578125 76.203125 C26.90773363 94.29192361 22.73819857 112.27001554 16 129 C15.01 129.99 15.01 129.99 14 131 C14.41706168 127.07962022 15.06338466 123.58829517 16.375 119.8671875 C27.91280675 85.85061018 24.14259597 51.7467568 8.6875 19.6875 C8.3378418 18.98794189 7.98818359 18.28838379 7.62792969 17.56762695 C5.88299525 14.05841767 4.52066206 10.90119253 4 7 C3.34 7 2.68 7 2 7 C0 4 0 4 0 0 Z " fill="#BAC6D9" transform="translate(640,262)"/>
<path d="M0 0 C12.02307976 -0.89985628 26.05598974 1.79844309 36 9 C37.26171875 11.15625 37.26171875 11.15625 38 13 C24.58086584 11.81855192 11.48101752 9.56067008 0 2 C0 1.34 0 0.68 0 0 Z " fill="#A2B2CD" transform="translate(126,523)"/>
<path d="M0 0 C34.58402296 -1.57598079 76.30269807 14.40191671 101.890625 37.72314453 C105.7037548 41.37772218 109.37567187 45.15893464 113 49 C112.505 49.99 112.505 49.99 112 51 C111.37996094 50.33355469 110.75992188 49.66710937 110.12109375 48.98046875 C89.61836314 27.64211011 63.66212395 16.44866818 36 7 C34.97737061 6.64639404 33.95474121 6.29278809 32.90112305 5.9284668 C30.54097357 5.17313157 28.33382699 4.59374224 25.8984375 4.18359375 C25.16608887 4.05960205 24.43374023 3.93561035 23.67919922 3.80786133 C22.91881348 3.68564209 22.15842773 3.56342285 21.375 3.4375 C20.58754395 3.30819092 19.80008789 3.17888184 18.98876953 3.0456543 C12.68030349 2.04054396 6.3796198 1.36276269 0 1 C0 0.67 0 0.34 0 0 Z " fill="#C8D1E1" transform="translate(515,194)"/>
<path d="M0 0 C3 2 3 2 3.9375 4.3125 C4 7 4 7 2.25 9.75 C-0.65400138 12.65400138 -2.36839315 12.95406496 -6.4375 13.25 C-10 13 -10 13 -12.4375 11.875 C-14 10 -14 10 -14.5625 7.0625 C-14 4 -14 4 -12.0625 1.625 C-8.02700831 -0.51628131 -4.49374196 -0.72371125 0 0 Z " fill="#083279" transform="translate(599,610)"/>
<path d="M0 0 C1.46397217 -0.00193359 1.46397217 -0.00193359 2.95751953 -0.00390625 C11.99487713 0.12572496 20.24402337 1.81089023 28.875 4.375 C28.5 6.8125 28.5 6.8125 27.875 9.375 C27.215 9.705 26.555 10.035 25.875 10.375 C25.875 9.055 25.875 7.735 25.875 6.375 C13.24697877 2.97761358 1.86639015 2.2315368 -11.125 2.375 C-11.18558594 3.53257812 -11.24617187 4.69015625 -11.30859375 5.8828125 C-11.39305502 7.42188457 -11.47770018 8.96094655 -11.5625 10.5 C-11.60181641 11.26054687 -11.64113281 12.02109375 -11.68164062 12.8046875 C-11.72353516 13.55234375 -11.76542969 14.3 -11.80859375 15.0703125 C-11.84525146 15.75109863 -11.88190918 16.43188477 -11.91967773 17.13330078 C-12.17397237 19.90967813 -12.64232399 22.63010225 -13.125 25.375 C-9.08025532 24.9853398 -5.04025978 24.55852345 -1 24.125 C0.71316406 23.96064453 0.71316406 23.96064453 2.4609375 23.79296875 C8.71130866 23.10252077 13.04902685 22.50247704 17.875 18.375 C18.82375 17.6325 19.7725 16.89 20.75 16.125 C21.801875 15.25875 21.801875 15.25875 22.875 14.375 C20.83946424 18.91807981 18.04054896 21.68524553 13.875 24.375 C10.91196849 25.47062003 8.00051032 25.96847248 4.875 26.375 C4.153125 26.48457031 3.43125 26.59414063 2.6875 26.70703125 C-3.24419582 27.5014548 -9.14992052 27.47551536 -15.125 27.375 C-14.98256403 24.70811371 -14.83613422 22.04154233 -14.6875 19.375 C-14.62852539 18.25931641 -14.62852539 18.25931641 -14.56835938 17.12109375 C-14.44114971 14.8704612 -14.28970418 12.62318765 -14.125 10.375 C-14.04934814 9.24771484 -14.04934814 9.24771484 -13.97216797 8.09765625 C-13.77734375 5.9375 -13.77734375 5.9375 -13.125 2.375 C-8.82905206 -0.48896529 -5.05982778 -0.00681803 0 0 Z " fill="#ACBAD2" transform="translate(780.125,408.625)"/>
<path d="M0 0 C1.48134979 2.76801979 2.47023547 5.37237624 3.23681641 8.41381836 C3.45689362 9.27829086 3.67697083 10.14276337 3.90371704 11.03343201 C4.13400604 11.95954788 4.36429504 12.88566376 4.6015625 13.83984375 C4.8428891 14.79895157 5.0842157 15.75805939 5.33285522 16.74623108 C5.84112302 18.77220664 6.34697697 20.79878908 6.85058594 22.82592773 C7.62173543 25.92438305 8.4041204 29.0198516 9.1875 32.11523438 C9.68037089 34.08576669 10.17258055 36.05646455 10.6640625 38.02734375 C10.89839996 38.95143539 11.13273743 39.87552704 11.37417603 40.82762146 C11.58794891 41.69524612 11.8017218 42.56287079 12.02197266 43.45678711 C12.21135406 44.21527451 12.40073547 44.9737619 12.59585571 45.75523376 C13.03795183 48.21079843 13.06867991 50.5101217 13 53 C7.55789518 52.49441091 3.29808306 51.03121476 -1.5625 48.5 C-2.25432373 48.14542725 -2.94614746 47.79085449 -3.65893555 47.42553711 C-31.58102955 32.83794089 -31.58102955 32.83794089 -36 24 C-32.69377113 25.4321536 -29.98185692 27.45225864 -27.12817383 29.63037109 C-21.24301271 34.11787339 -15.26085927 38.23700091 -8.8125 41.875 C-8.20889648 42.21926025 -7.60529297 42.56352051 -6.98339844 42.91821289 C-1.20187468 46.09835799 4.887923 48.5328211 11 51 C10.86219116 50.46430893 10.72438232 49.92861786 10.58239746 49.37669373 C9.14495495 43.78223178 7.71928183 38.18486369 6.30029297 32.58569336 C5.76975626 30.49866748 5.23626043 28.41239145 4.69970703 26.3269043 C3.92735167 23.32274288 3.16580796 20.31601281 2.40625 17.30859375 C2.16563843 16.38227646 1.92502686 15.45595917 1.67712402 14.50157166 C0.43069347 9.51884182 -0.27050755 5.13656947 0 0 Z " fill="#BCC8DB" transform="translate(307,419)"/>
<path d="M0 0 C2.375 1.5 2.375 1.5 4 4 C4.51126196 6.90672532 4.33967947 8.9914104 4 12 C0.50875983 14.32749345 -0.89222251 14.50299316 -5 14 C-7.375 12.4375 -7.375 12.4375 -9 10 C-9.42841969 6.51143969 -9.66830867 4.15097604 -7.875 1.0625 C-5.06487736 -0.52990283 -3.17235276 -0.45319325 0 0 Z " fill="#345791" transform="translate(346,555)"/>
<path d="M0 0 C2.61768391 2.3444802 4.05747621 4.72881231 5.62890625 7.859375 C6.10650391 8.81070313 6.58410156 9.76203125 7.07617188 10.7421875 C7.56666016 11.73476562 8.05714844 12.72734375 8.5625 13.75 C9.05685547 14.72710937 9.55121094 15.70421875 10.06054688 16.7109375 C12.56889894 21.74800714 14.70596007 26.51755863 16 32 C18.97 32 21.94 32 25 32 C19.62816067 35.58122622 12.36672329 34.53425431 6.14453125 33.546875 C4.08289661 33.08800561 2.03845737 32.552802 0 32 C0 31.67 0 31.34 0 31 C4.62 31 9.24 31 14 31 C12.7625 29.370625 11.525 27.74125 10.25 26.0625 C4.15567771 17.63166192 1.46015675 10.27873502 0 0 Z " fill="#C7D1E1" transform="translate(63,241)"/>
<path d="M0 0 C1.48831242 0.00667405 2.97660807 0.01863442 4.46484375 0.03515625 C5.22345703 0.03966797 5.98207031 0.04417969 6.76367188 0.04882812 C8.64326246 0.06064945 10.52281274 0.07858547 12.40234375 0.09765625 C12.07234375 1.08765625 11.74234375 2.07765625 11.40234375 3.09765625 C10.90734375 2.10765625 10.90734375 2.10765625 10.40234375 1.09765625 C3.96734375 1.59265625 3.96734375 1.59265625 -2.59765625 2.09765625 C-3.15453125 3.41378906 -3.71140625 4.72992188 -4.28515625 6.0859375 C-9.07800458 17.20543024 -13.66994982 27.02881395 -22.22265625 35.78515625 C-28.66674341 38.29119015 -36.38423025 38.43331009 -42.79296875 35.76953125 C-45.26432119 34.29635737 -47.34058918 32.82901662 -49.47265625 30.91015625 C-50.06820312 30.38035156 -50.66375 29.85054688 -51.27734375 29.3046875 C-51.71304688 28.90636719 -52.14875 28.50804687 -52.59765625 28.09765625 C-52.26765625 27.43765625 -51.93765625 26.77765625 -51.59765625 26.09765625 C-51.18515625 26.49597656 -50.77265625 26.89429688 -50.34765625 27.3046875 C-44.98150656 32.22765072 -39.85536833 35.13516084 -32.47265625 35.47265625 C-25.35709689 34.78405373 -21.91030665 31.77579262 -17.4230957 26.55810547 C-14.13371788 22.12446233 -11.97970037 17.17545959 -9.72265625 12.16015625 C-8.76836755 10.08787772 -7.81271499 8.01622651 -6.85546875 5.9453125 C-6.44441895 5.03789307 -6.03336914 4.13047363 -5.60986328 3.19555664 C-4.12203823 0.11189029 -4.12203823 0.11189029 0 0 Z " fill="#D8DEEA" transform="translate(74.59765625,297.90234375)"/>
<path d="M0 0 C9.61517961 0.49032126 18.83111629 1.91472471 28.25 3.875 C29.57935105 4.13450439 30.9087779 4.39362077 32.23828125 4.65234375 C34.10806641 5.03712891 34.10806641 5.03712891 36.015625 5.4296875 C37.14258789 5.65897949 38.26955078 5.88827148 39.43066406 6.12451172 C40.27854492 6.41342285 41.12642578 6.70233398 42 7 C42.495 8.485 42.495 8.485 43 10 C23.53960786 14.36037429 3.14368796 10.36719943 -15 3 C-10.9612085 1.32982306 -7.7938173 2.8737858 -3.9375 4.3125 C9.49762624 8.98537772 21.86243193 9.25593704 36 9 C36 8.67 36 8.34 36 8 C24.12 5.69 12.24 3.38 0 1 C0 0.67 0 0.34 0 0 Z " fill="#A8B7D0" transform="translate(551,627)"/>
<path d="M0 0 C0.33 0.66 0.66 1.32 1 2 C3.71764139 2.40550891 3.71764139 2.40550891 7.02734375 2.4921875 C8.91598145 2.58657104 8.91598145 2.58657104 10.84277344 2.68286133 C11.51175659 2.71360748 12.18073975 2.74435364 12.86999512 2.77603149 C33.00093664 3.73967091 51.8628617 5.3279693 67 20 C63.47547841 20 62.99654207 19.42922427 60.375 17.25 C45.52081551 5.83403542 25.83067611 6.30983064 7.92163086 5.24951172 C4.90833109 4.99217134 1.9753197 4.53583957 -1 4 C-0.67 2.68 -0.34 1.36 0 0 Z " fill="#C2CDDE" transform="translate(63,332)"/>
<path d="M0 0 C3.125 0.375 3.125 0.375 5.5625 2 C7.125 4.375 7.125 4.375 7 7.5 C6.125 10.375 6.125 10.375 4.125 12.375 C0.625 12.1875 0.625 12.1875 -2.875 11.375 C-5.17663882 7.92254176 -5.21990322 6.42761287 -4.875 2.375 C-2.875 0.375 -2.875 0.375 0 0 Z " fill="#EEF1F5" transform="translate(87.875,243.625)"/>
<path d="M0 0 C9.07242238 8.17300119 13.65458759 23.6515189 14.34765625 35.5703125 C14.59320416 43.48658125 14.40093049 50.71672877 11 58 C10.74863281 58.67675781 10.49726562 59.35351562 10.23828125 60.05078125 C9.5 62 9.5 62 8 65 C6.515 65.495 6.515 65.495 5 66 C5.28746094 65.2884375 5.57492187 64.576875 5.87109375 63.84375 C6.97052465 61.07424933 8.03003207 58.29512232 9.0625 55.5 C9.40410156 54.5821875 9.74570312 53.664375 10.09765625 52.71875 C14.82295176 38.48149599 10.606851 22.86734497 4.14477539 9.77636719 C3.23834752 8.03517496 2.29784699 6.31184408 1.35546875 4.58984375 C0 2 0 2 0 0 Z " fill="#A4B4CE" transform="translate(534,322)"/>
<path d="M0 0 C9.57664313 0.45066556 20.54846539 2.26459242 29 7 C29 7.66 29 8.32 29 9 C21.64569985 9.83032421 16.21122643 8.2821378 9.4375 5.625 C8.62748535 5.30845459 7.8174707 4.99190918 6.98291016 4.66577148 C1.13943428 2.27886857 1.13943428 2.27886857 0 0 Z " fill="#0E377C" transform="translate(129,524)"/>
<path d="M0 0 C0.66 0.33 1.32 0.66 2 1 C-4.58172902 7.14524437 -11.23239319 13.08586352 -18.2578125 18.7265625 C-22.17917734 21.97760857 -25.88123003 25.44345506 -29.58984375 28.93359375 C-31.69449406 30.73806703 -33.46693873 31.92447746 -36 33 C-31.71768344 23.23369642 -20.98410412 16.69216168 -12.75 10.36083984 C-8.42664999 6.99890445 -4.22103786 3.48881701 0 0 Z " fill="#CFD7E5" transform="translate(728,606)"/>
<path d="M0 0 C0.0494731 5.33852794 0.08575425 10.67692214 0.10986328 16.015625 C0.11991491 17.83140386 0.13355828 19.64716656 0.15087891 21.46289062 C0.17516406 24.07425935 0.18649148 26.68541387 0.1953125 29.296875 C0.20563507 30.10743347 0.21595764 30.91799194 0.22659302 31.75311279 C0.22743142 35.97384958 -0.06671186 38.13342373 -2 42 C-2 28.8 -2 15.6 -2 2 C-2.66 1.67 -3.32 1.34 -4 1 C-2 0 -2 0 0 0 Z " fill="#BDC8DB" transform="translate(204,57)"/>
<path d="M0 0 C3 2 3 2 3.9375 4.3125 C4 7 4 7 2.25 9.75 C-0.65400138 12.65400138 -2.36839315 12.95406496 -6.4375 13.25 C-10 13 -10 13 -12.4375 11.875 C-14 10 -14 10 -14.5625 7.0625 C-14 4 -14 4 -12.0625 1.625 C-8.02700831 -0.51628131 -4.49374196 -0.72371125 0 0 Z M-10.625 3.6875 C-12.26068357 5.93862273 -12.26068357 5.93862273 -11.8125 8.6875 C-11.21073101 10.93351267 -11.21073101 10.93351267 -10 12 C-7.96014353 12.01273699 -7.96014353 12.01273699 -5.625 11.75 C-4.43777344 11.64945313 -4.43777344 11.64945313 -3.2265625 11.546875 C-0.6045364 10.90286859 0.38036193 10.13544637 2 8 C2.33374277 5.41583753 2.33374277 5.41583753 2 3 C0.43058802 1.43058802 -1.14134994 1.7550153 -3.3125 1.6875 C-6.62145518 1.72971952 -7.76831682 1.85106081 -10.625 3.6875 Z " fill="#B6C2D7" transform="translate(599,610)"/>
<path d="M0 0 C0.33 0 0.66 0 1 0 C1.20894115 5.3488935 0.51677322 9.84747788 -0.875 15 C-1.04902344 15.67289062 -1.22304688 16.34578125 -1.40234375 17.0390625 C-4.9467397 30.63904105 -4.9467397 30.63904105 -8 37 C-8.99 37.495 -8.99 37.495 -10 38 C-7.88176336 29.38564125 -5.63221652 20.81212696 -3.3125 12.25 C-2.99216797 11.0640625 -2.67183594 9.878125 -2.34179688 8.65625 C-1.56219567 5.77056195 -0.7815824 2.88515195 0 0 Z " fill="#9BACC9" transform="translate(746,383)"/>
<path d="M0 0 C0.4846875 0.39832031 0.969375 0.79664063 1.46875 1.20703125 C8.6081648 6.84991487 14.78452563 9.8918201 24 9 C27.31217963 7.65059348 29.4792773 6.5207227 32 4 C32.99 4.33 33.98 4.66 35 5 C29.78343336 9.22964863 27.0250441 11.29065481 20.1875 11.3125 C18.98480469 11.32925781 17.78210938 11.34601563 16.54296875 11.36328125 C11.09301419 10.80446562 7.20777052 8.48497394 3.125 4.9375 C2.52945312 4.43089844 1.93390625 3.92429687 1.3203125 3.40234375 C0 2 0 2 0 0 Z " fill="#BBC7DA" transform="translate(22,324)"/>
<path d="M0 0 C1.32 0 2.64 0 4 0 C4 0.66 4 1.32 4 2 C4.72469482 2.11786865 5.44938965 2.2357373 6.19604492 2.35717773 C9.05057416 3.01159441 11.25987228 3.95825749 13.86328125 5.28515625 C14.74951172 5.73310547 15.63574219 6.18105469 16.54882812 6.64257812 C17.46083984 7.11115234 18.37285156 7.57972656 19.3125 8.0625 C20.24384766 8.53494141 21.17519531 9.00738281 22.13476562 9.49414062 C24.42598769 10.65737644 26.7142124 11.82613132 29 13 C29 13.66 29 14.32 29 15 C23.27943448 13.32638001 18.11963357 10.72567419 12.8125 8.0625 C11.91080078 7.61970703 11.00910156 7.17691406 10.08007812 6.72070312 C9.21447266 6.28822266 8.34886719 5.85574219 7.45703125 5.41015625 C6.67303955 5.01965088 5.88904785 4.62914551 5.08129883 4.22680664 C3.03208815 3.01891413 1.58976342 1.75627072 0 0 Z " fill="#ABB9D1" transform="translate(290,473)"/>
<path d="M0 0 C2 1 2 1 3.03515625 4.02734375 C3.38824489 5.32788692 3.7300535 6.63152778 4.0625 7.9375 C4.2387793 8.61176025 4.41505859 9.28602051 4.59667969 9.98071289 C5.93365109 15.28752896 6.74240517 20.52610979 7 26 C3.22454612 24.90931332 0.52956528 24.0916909 -2 21 C-0.68 21 0.64 21 2 21 C2 21.66 2 22.32 2 23 C2.99 23 3.98 23 5 23 C4.09401279 18.74957062 3.16049554 14.54757301 1.9375 10.375 C0.97830336 6.9218921 0.43515384 3.5537564 0 0 Z " fill="#A0B0CB" transform="translate(508,364)"/>
<path d="M0 0 C7.84179688 6.4453125 7.84179688 6.4453125 10 10 C10 10.66 10 11.32 10 12 C4.32146365 10.58036591 0.46825784 7.60636039 -4 4 C-3.34 3.67 -2.68 3.34 -2 3 C-1.01 3.33 -0.02 3.66 1 4 C0.67 2.68 0.34 1.36 0 0 Z " fill="#6E86B0" transform="translate(336,573)"/>
<path d="M0 0 C3.64246055 0.60105672 6.6229395 1.60807179 9.94140625 3.21484375 C10.85470703 3.65376953 11.76800781 4.09269531 12.70898438 4.54492188 C13.65064453 5.00447266 14.59230469 5.46402344 15.5625 5.9375 C16.50802734 6.39318359 17.45355469 6.84886719 18.42773438 7.31835938 C22.29824188 9.18659727 26.1591082 11.07155339 30 13 C26.58432715 14.13855762 26.20157289 13.9349449 23.0859375 12.5234375 C22.32845215 12.18441406 21.5709668 11.84539063 20.79052734 11.49609375 C19.99340332 11.12613281 19.1962793 10.75617187 18.375 10.375 C17.56627441 10.00761719 16.75754883 9.64023437 15.92431641 9.26171875 C10.46231227 6.75348724 5.17345674 4.06575214 0 1 C0 0.67 0 0.34 0 0 Z " fill="#BAC6D9" transform="translate(398,548)"/>
<path d="M0 0 C0.33 0.66 0.66 1.32 1 2 C3.26147398 2.43673135 3.26147398 2.43673135 5.98828125 2.5625 C7.00470703 2.63726562 8.02113281 2.71203125 9.06835938 2.7890625 C10.13892578 2.85867188 11.20949219 2.92828125 12.3125 3 C14.41328363 3.13809168 16.51359374 3.28363787 18.61328125 3.4375 C19.54954346 3.49808594 20.48580566 3.55867188 21.45043945 3.62109375 C24.02140535 4.00318118 25.76540152 4.70378201 28 6 C24.29140769 5.86033274 20.5832011 5.71216836 16.875 5.5625 C15.82828125 5.52318359 14.7815625 5.48386719 13.703125 5.44335938 C8.72806158 5.23868904 3.89229851 5.00723793 -1 4 C-0.67 2.68 -0.34 1.36 0 0 Z " fill="#8499BC" transform="translate(63,332)"/>
<path d="M0 0 C2.86724686 0.57344937 3.8614515 0.8614515 6 3 C6 3.66 6 4.32 6 5 C7.22044701 6.49889633 7.22044701 6.49889633 8.84375 8.0390625 C9.43027344 8.61914062 10.01679688 9.19921875 10.62109375 9.796875 C11.24113281 10.40015625 11.86117188 11.0034375 12.5 11.625 C13.43005859 12.54152344 13.43005859 12.54152344 14.37890625 13.4765625 C15.91485086 14.98887719 17.45686675 16.49502114 19 18 C16 18 16 18 14.19067383 16.56298828 C13.53607178 15.90540527 12.88146973 15.24782227 12.20703125 14.5703125 C11.49482422 13.85746094 10.78261719 13.14460937 10.04882812 12.41015625 C9.31083984 11.65605469 8.57285156 10.90195312 7.8125 10.125 C7.06291016 9.37863281 6.31332031 8.63226562 5.54101562 7.86328125 C0 2.26680505 0 2.26680505 0 0 Z " fill="#BFCADC" transform="translate(297,544)"/>
<path d="M0 0 C8.11138929 0.36620268 15.33035667 2.41540233 23 5 C23 5.33 23 5.66 23 6 C14.97229811 5.44636539 7.66145933 3.34312056 0 1 C0 0.67 0 0.34 0 0 Z " fill="#AEBCD3" transform="translate(436,565)"/>
<path d="M0 0 C0.90105469 0.02707031 1.80210937 0.05414062 2.73046875 0.08203125 C3.76107422 0.13423828 3.76107422 0.13423828 4.8125 0.1875 C4.8125 0.5175 4.8125 0.8475 4.8125 1.1875 C3.719375 1.290625 2.62625 1.39375 1.5 1.5 C-2.03103702 1.93937636 -2.03103702 1.93937636 -4.1875 3.375 C-5.71012484 6.13475752 -4.91179919 8.22445788 -4.1875 11.1875 C-5.5075 10.5275 -6.8275 9.8675 -8.1875 9.1875 C-8.55288462 3.70673077 -8.55288462 3.70673077 -7 1.5 C-4.56175415 -0.26562631 -2.97705493 -0.11598915 0 0 Z " fill="#6C85AF" transform="translate(593.1875,610.8125)"/>
<path d="M0 0 C0.33 0 0.66 0 1 0 C1.50068405 6.75923474 0.19036621 11.99272183 -3 18 C-4.63671875 19.79296875 -4.63671875 19.79296875 -6 21 C-6 17.35492062 -4.92631539 15.00169873 -3.5625 11.625 C-1.99876413 7.74907348 -0.67307585 4.13129315 0 0 Z " fill="#AEBCD3" transform="translate(546,367)"/>
<path d="M0 0 C1.32 0.33 2.64 0.66 4 1 C4 1.66 4 2.32 4 3 C0.57426063 3.77528479 -2.57239245 4.11918778 -6.08203125 4.09765625 C-7.01337891 4.09443359 -7.94472656 4.09121094 -8.90429688 4.08789062 C-9.86400391 4.07951172 -10.82371094 4.07113281 -11.8125 4.0625 C-13.28106445 4.05573242 -13.28106445 4.05573242 -14.77929688 4.04882812 C-17.18626111 4.03708684 -19.59309857 4.02066419 -22 4 C-22 3.67 -22 3.34 -22 3 C-14.74 2.67 -7.48 2.34 0 2 C0 1.34 0 0.68 0 0 Z " fill="#ACBAD2" transform="translate(590,634)"/>
<path d="M0 0 C0.66 0.33 1.32 0.66 2 1 C0.59106853 2.63171123 -0.82745958 4.25513945 -2.25 5.875 C-3.03890625 6.77992188 -3.8278125 7.68484375 -4.640625 8.6171875 C-6.74691403 10.74439993 -8.25651526 11.90512306 -11 13 C-9.46356148 9.31930113 -7.21849055 7.01224796 -4.375 4.25 C-3.55773437 3.45078125 -2.74046875 2.6515625 -1.8984375 1.828125 C-0.95871094 0.92320312 -0.95871094 0.92320312 0 0 Z " fill="#C9D2E1" transform="translate(703,626)"/>
<path d="M0 0 C0.66 0.33 1.32 0.66 2 1 C-5.11389522 9.6309795 -5.11389522 9.6309795 -10 12 C-8.52278578 8.54798361 -6.56205999 6.35038064 -3.875 3.75 C-3.15054688 3.04359375 -2.42609375 2.3371875 -1.6796875 1.609375 C-1.12539062 1.07828125 -0.57109375 0.5471875 0 0 Z " fill="#667FAC" transform="translate(111,495)"/>
<path d="M0 0 C4.16446295 3.42080885 6.46633604 7.89092312 8 13 C7.67 13.99 7.34 14.98 7 16 C6.01246936 14.27559635 5.03531194 12.54524974 4.0625 10.8125 C3.24458984 9.36810547 3.24458984 9.36810547 2.41015625 7.89453125 C1.09420667 5.19337158 0.42698113 2.95643899 0 0 Z " fill="#B0BDD4" transform="translate(552,319)"/>
<path d="M0 0 C4.95 0.33 9.9 0.66 15 1 C15 1.33 15 1.66 15 2 C12.36 2.33 9.72 2.66 7 3 C7.33 3.66 7.66 4.32 8 5 C4.5625 4.1875 4.5625 4.1875 1 3 C0.67 2.01 0.34 1.02 0 0 Z " fill="#ADBBD2" transform="translate(528,624)"/>
<path d="M0 0 C0.99 0.33 1.98 0.66 3 1 C-0.3 3.97 -3.6 6.94 -7 10 C-7.66 9.67 -8.32 9.34 -9 9 C-7.87895467 7.68412059 -6.75303035 6.37239647 -5.625 5.0625 C-4.99851562 4.33160156 -4.37203125 3.60070312 -3.7265625 2.84765625 C-2 1 -2 1 0 0 Z " fill="#EBEFF4" transform="translate(711,620)"/>
<path d="M0 0 C2.475 0.495 2.475 0.495 5 1 C1.74610012 3.16926659 0.86604043 3.24080049 -2.88671875 3.1953125 C-4.2934082 3.18564453 -4.2934082 3.18564453 -5.72851562 3.17578125 C-7.19321289 3.15064453 -7.19321289 3.15064453 -8.6875 3.125 C-9.67556641 3.11597656 -10.66363281 3.10695313 -11.68164062 3.09765625 C-14.12133765 3.0740843 -16.56054697 3.04118022 -19 3 C-19 2.67 -19 2.34 -19 2 C-12.73 2 -6.46 2 0 2 C0 1.34 0 0.68 0 0 Z " fill="#1E4585" transform="translate(585,634)"/>
<path d="M0 0 C1.85486952 2.78230428 2.72462112 4.84363607 3.6875 8 C3.95949219 8.86625 4.23148437 9.7325 4.51171875 10.625 C5 13 5 13 4 16 C0.42530375 12.42530375 0.03082717 7.97105579 -0.125 3.0625 C-0.08375 2.051875 -0.0425 1.04125 0 0 Z " fill="#889CBE" transform="translate(66,143)"/>
<path d="M0 0 C0.33 0 0.66 0 1 0 C1.33 3.3 1.66 6.6 2 10 C-1.77545388 8.90931332 -4.47043472 8.0916909 -7 5 C-5.68 5 -4.36 5 -3 5 C-3 5.66 -3 6.32 -3 7 C-2.01 7 -1.02 7 0 7 C0 4.69 0 2.38 0 0 Z " fill="#BBC6DA" transform="translate(513,380)"/>
<path d="M0 0 C0.66 0.33 1.32 0.66 2 1 C0 4 0 4 -2.625 4.6875 C-3.40875 4.790625 -4.1925 4.89375 -5 5 C-5.33 5.99 -5.66 6.98 -6 8 C-7.32 7.67 -8.64 7.34 -10 7 C-6.7 4.69 -3.4 2.38 0 0 Z " fill="#98A9C7" transform="translate(695,614)"/>
<path d="M0 0 C6.57142857 5 6.57142857 5 8 10 C5.97954558 9.39816251 3.97888961 8.72693904 2 8 C1.67 7.34 1.34 6.68 1 6 C1.99 6 2.98 6 4 6 C3.34 5.38125 2.68 4.7625 2 4.125 C0 2 0 2 0 0 Z " fill="#BCC7DB" transform="translate(338,575)"/>
<path d="M0 0 C1.79378179 2.69067269 2.97313958 5.08578257 4.1875 8.0625 C4.55230469 8.94035156 4.91710937 9.81820313 5.29296875 10.72265625 C6 13 6 13 5 15 C1.10640794 10.10160999 0.2757735 6.2049038 0 0 Z " fill="#A7B6CF" transform="translate(326,440)"/>
<path d="M0 0 C0.33 0.66 0.66 1.32 1 2 C3.71446979 2.31241455 6.33909361 2.51336592 9.0625 2.625 C10.20041992 2.68300781 10.20041992 2.68300781 11.36132812 2.7421875 C13.24047195 2.83673562 15.12020336 2.91946756 17 3 C17 3.33 17 3.66 17 4 C11.06 4 5.12 4 -1 4 C-0.67 2.68 -0.34 1.36 0 0 Z " fill="#D5DCE8" transform="translate(63,332)"/>
<path d="M0 0 C4.12751449 0.60698743 7.3321148 2.03810791 11 4 C11 4.66 11 5.32 11 6 C6.95743617 4.77782954 3.50711041 3.37245704 0 1 C0 0.67 0 0.34 0 0 Z " fill="#B3C0D6" transform="translate(319,488)"/>
<path d="M0 0 C3.94120709 0.56302958 6.7508723 1.6791945 10 4 C10 4.66 10 5.32 10 6 C5.56909529 4.79157144 3.01887244 3.48331435 0 0 Z " fill="#A1B1CC" transform="translate(280,467)"/>
<path d="M0 0 C4.43090471 1.20842856 6.98112756 2.51668565 10 6 C5.96776894 6 4.19119553 4.35870974 1 2 C0.67 1.34 0.34 0.68 0 0 Z " fill="#A6B6CF" transform="translate(442,460)"/>
<path d="M0 0 C0.99 0.66 1.98 1.32 3 2 C2.67 2.66 2.34 3.32 2 4 C1.01 3.34 0.02 2.68 -1 2 C-4.63939932 2.31730524 -4.63939932 2.31730524 -8 3 C-8 2.34 -8 1.68 -8 1 C-5.22899606 -0.38550197 -3.0665294 -0.1877467 0 0 Z " fill="#AEBBD3" transform="translate(346,555)"/>
<path d="M0 0 C1.32 0.66 2.64 1.32 4 2 C4 2.66 4 3.32 4 4 C0.37 3.67 -3.26 3.34 -7 3 C-7 2.67 -7 2.34 -7 2 C-3.535 1.505 -3.535 1.505 0 1 C0 0.67 0 0.34 0 0 Z " fill="#B4C1D6" transform="translate(160,532)"/>
<path d="M0 0 C1.90318884 2.85478326 2.4619099 4.41941308 3.125 7.6875 C3.29257812 8.49574219 3.46015625 9.30398438 3.6328125 10.13671875 C3.75398438 10.75160156 3.87515625 11.36648438 4 12 C1 10 1 10 0.48828125 7.6171875 C0.40126953 6.25980469 0.40126953 6.25980469 0.3125 4.875 C0.24675781 3.96492188 0.18101562 3.05484375 0.11328125 2.1171875 C0.07589844 1.41851562 0.03851563 0.71984375 0 0 Z " fill="#A5B4CE" transform="translate(322,428)"/>
<path d="M0 0 C0.99 0.33 1.98 0.66 3 1 C-0.60957611 4.2910841 -3.12637153 5.54663921 -8 6 C-7.01 5.34 -6.02 4.68 -5 4 C-3.7625 2.9171875 -3.7625 2.9171875 -2.5 1.8125 C-1.675 1.214375 -0.85 0.61625 0 0 Z " fill="#CCD5E3" transform="translate(54,328)"/>
<path d="M0 0 C3.77545388 1.09068668 6.47043472 1.9083091 9 5 C4.98525763 5 3.18024863 3.33218233 0 1 C0 0.67 0 0.34 0 0 Z " fill="#AAB8D1" transform="translate(271,461)"/>
</svg>
